<svg width="200" height="50" viewBox="0 0 418 84" fill="none" xmlns="http://www.w3.org/2000/svg">
<path d="M90.8186 65.64C87.7465 65.64 85.1012 65.128 82.8825 64.104C80.7065 63.08 79.0212 61.608 77.8265 59.688C76.6319 57.768 76.0132 55.4853 75.9705 52.84H81.7305C81.7305 55.1867 82.5199 57.0427 84.0985 58.408C85.7199 59.7733 87.9599 60.456 90.8186 60.456C93.5065 60.456 95.5972 59.7947 97.0905 58.472C98.6266 57.1493 99.3946 55.3147 99.3946 52.968C99.3946 51.0907 98.8826 49.448 97.8586 48.04C96.8772 46.632 95.4479 45.6507 93.5705 45.096L87.2345 43.112C84.0345 42.1307 81.5599 40.488 79.8105 38.184C78.1039 35.88 77.2505 33.1707 77.2505 30.056C77.2505 27.5387 77.8052 25.3627 78.9145 23.528C80.0665 21.6507 81.6665 20.2 83.7145 19.176C85.7625 18.1093 88.1732 17.576 90.9466 17.576C95.0425 17.576 98.3279 18.728 100.803 21.032C103.277 23.2933 104.536 26.3227 104.579 30.12H98.8186C98.8186 27.816 98.1146 26.024 96.7066 24.744C95.3412 23.4213 93.3999 22.76 90.8825 22.76C88.4079 22.76 86.4665 23.3573 85.0585 24.552C83.6932 25.7467 83.0105 27.4107 83.0105 29.544C83.0105 31.464 83.5225 33.128 84.5465 34.536C85.5705 35.944 87.0425 36.9467 88.9625 37.544L95.3626 39.592C98.4772 40.5733 100.888 42.2373 102.595 44.584C104.301 46.9307 105.155 49.6827 105.155 52.84C105.155 55.4 104.557 57.64 103.363 59.56C102.168 61.48 100.483 62.9733 98.3066 64.04C96.1732 65.1067 93.6772 65.64 90.8186 65.64ZM115.626 65V18.28H121.386V29.8V36.52H122.602L121.386 37.864C121.386 35.0907 122.218 32.9573 123.882 31.464C125.546 29.928 127.85 29.16 130.794 29.16C134.335 29.16 137.151 30.248 139.242 32.424C141.332 34.6 142.378 37.5653 142.378 41.32V65H136.618V41.96C136.618 39.4427 135.935 37.5013 134.57 36.136C133.247 34.728 131.434 34.024 129.13 34.024C126.74 34.024 124.842 34.7707 123.434 36.264C122.068 37.7573 121.386 39.8693 121.386 42.6V65H115.626ZM167.313 65.64C164.539 65.64 162.107 65.0853 160.017 63.976C157.969 62.8667 156.369 61.3093 155.217 59.304C154.107 57.256 153.553 54.888 153.553 52.2V42.6C153.553 39.8693 154.107 37.5013 155.217 35.496C156.369 33.4907 157.969 31.9333 160.017 30.824C162.107 29.7147 164.539 29.16 167.313 29.16C170.086 29.16 172.497 29.7147 174.545 30.824C176.635 31.9333 178.235 33.4907 179.345 35.496C180.497 37.5013 181.073 39.8693 181.073 42.6V48.808H159.185V52.2C159.185 54.9733 159.889 57.1067 161.297 58.6C162.705 60.0507 164.71 60.776 167.313 60.776C169.531 60.776 171.323 60.392 172.689 59.624C174.054 58.8133 174.886 57.6187 175.185 56.04H180.945C180.561 58.984 179.11 61.3307 176.593 63.08C174.118 64.7867 171.025 65.64 167.313 65.64ZM175.441 44.968V42.6C175.441 39.8267 174.737 37.6933 173.329 36.2C171.963 34.7067 169.958 33.96 167.313 33.96C164.71 33.96 162.705 34.7067 161.297 36.2C159.889 37.6933 159.185 39.8267 159.185 42.6V44.456H175.889L175.441 44.968ZM210.488 65C208.44 65 206.648 64.5947 205.112 63.784C203.576 62.9733 202.381 61.8213 201.528 60.328C200.674 58.8347 200.248 57.0853 200.248 55.08V23.528H188.408V18.28H206.008V55.08C206.008 56.5307 206.413 57.6827 207.224 58.536C208.034 59.3467 209.122 59.752 210.488 59.752H221.688V65H210.488ZM238.943 65V38.568H228.703V33.32H238.943V27.24C238.943 24.4667 239.817 22.2907 241.567 20.712C243.316 19.0907 245.727 18.28 248.799 18.28H259.103V23.528H248.799C247.476 23.528 246.452 23.848 245.727 24.488C245.044 25.0853 244.703 26.0027 244.703 27.24V33.32H259.103V38.568H244.703V65H238.943ZM267.398 48.68V44.2C267.398 41.6827 268.166 39.6773 269.702 38.184C271.238 36.648 273.243 35.88 275.718 35.88C277.296 35.88 278.64 36.1573 279.75 36.712C280.859 37.2667 281.798 37.9707 282.566 38.824C283.376 39.6347 284.102 40.4667 284.742 41.32C285.382 42.1307 286.043 42.8133 286.726 43.368C287.408 43.9227 288.176 44.2 289.03 44.2C290.011 44.2 290.758 43.9013 291.27 43.304C291.782 42.7067 292.038 41.832 292.038 40.68V36.2H297.478V40.68C297.478 43.1547 296.71 45.16 295.174 46.696C293.68 48.232 291.675 49 289.158 49C287.579 49 286.235 48.7227 285.126 48.168C284.016 47.6133 283.056 46.9307 282.246 46.12C281.478 45.2667 280.774 44.4347 280.134 43.624C279.494 42.7707 278.832 42.0667 278.15 41.512C277.467 40.9573 276.699 40.68 275.846 40.68C274.907 40.68 274.16 40.9787 273.606 41.576C273.094 42.1733 272.838 43.048 272.838 44.2V48.68H267.398ZM307.053 65V59.752H319.533V35.048H308.653V29.8H325.293V59.752H337.133V65H307.053ZM321.773 23.464C320.365 23.464 319.255 23.1013 318.445 22.376C317.634 21.6507 317.229 20.6693 317.229 19.432C317.229 18.152 317.634 17.1493 318.445 16.424C319.255 15.656 320.365 15.272 321.773 15.272C323.181 15.272 324.29 15.656 325.101 16.424C325.911 17.1493 326.317 18.152 326.317 19.432C326.317 20.6693 325.911 21.6507 325.101 22.376C324.29 23.1013 323.181 23.464 321.773 23.464ZM358.1 65.512C355.71 65.512 353.62 65.1493 351.828 64.424C350.078 63.656 348.67 62.5893 347.604 61.224C346.58 59.8587 345.961 58.2373 345.748 56.36H351.508C351.764 57.5973 352.446 58.5787 353.556 59.304C354.708 60.0293 356.222 60.392 358.1 60.392H360.788C363.049 60.392 364.734 59.944 365.844 59.048C366.953 58.1093 367.508 56.872 367.508 55.336C367.508 53.8427 366.996 52.6693 365.972 51.816C364.99 50.92 363.518 50.3227 361.556 50.024L356.82 49.256C353.364 48.6587 350.782 47.592 349.076 46.056C347.412 44.4773 346.58 42.1947 346.58 39.208C346.58 36.0507 347.582 33.6187 349.588 31.912C351.593 30.1627 354.601 29.288 358.612 29.288H361.044C364.414 29.288 367.124 30.0773 369.172 31.656C371.22 33.2347 372.457 35.368 372.884 38.056H367.124C366.868 36.9467 366.228 36.072 365.204 35.432C364.18 34.7493 362.793 34.408 361.044 34.408H358.612C356.436 34.408 354.836 34.8133 353.812 35.624C352.83 36.4347 352.34 37.6507 352.34 39.272C352.34 40.7227 352.766 41.7893 353.62 42.472C354.473 43.1547 355.817 43.6453 357.652 43.944L362.388 44.712C366.185 45.3093 368.937 46.4187 370.644 48.04C372.393 49.6613 373.268 52.008 373.268 55.08C373.268 58.3227 372.222 60.8827 370.132 62.76C368.084 64.5947 364.969 65.512 360.788 65.512H358.1ZM384.251 65V18.28H390.011V29.8V36.52H391.227L390.011 37.864C390.011 35.0907 390.843 32.9573 392.507 31.464C394.171 29.928 396.475 29.16 399.419 29.16C402.96 29.16 405.776 30.248 407.867 32.424C409.957 34.6 411.003 37.5653 411.003 41.32V65H405.243V41.96C405.243 39.4427 404.56 37.5013 403.195 36.136C401.872 34.728 400.059 34.024 397.755 34.024C395.365 34.024 393.467 34.7707 392.059 36.264C390.693 37.7573 390.011 39.8693 390.011 42.6V65H384.251Z" fill="white"/>
<line x1="1.02502" y1="21.5" x2="56.025" y2="21.5" stroke="#FFE5B4" stroke-width="7" stroke-linejoin="round"/>
<line x1="1" y1="41.5" x2="56" y2="41.5" stroke="#FFE5B4" stroke-width="7" stroke-linejoin="round"/>
<line x1="1.05005" y1="62.5" x2="56.05" y2="62.5" stroke="#FFE5B4" stroke-width="7" stroke-linejoin="round"/>
</svg>
